<?xml version="1.0"?>
<svg version="1.1" xmlns="http://www.w3.org/2000/svg" width="70" height="40" style=""><path fill="#0087e8" d=""/><path fill="#" d="M20.98,36.8l0-2.38l2.1-0.84l0-13.16l-2.1-0.84l0-2.38l6.44-0.14l2.66,0c4.284,0,6.804,2.24,6.804,5.88c0,4.704-2.884,7-7.98,7l-1.484,0l0,3.64l2.1,0.84l0,2.38l-8.54,0z M27.42,26.664l1.484,0c2.324,0,3.64-1.092,3.64-3.164c0-1.82-0.98-3.08-2.884-3.08l-2.24,0l0,6.244z M39.53028,19.58l0-2.38l8.68-0.14l0,2.52l-2.072,0.812l2.576,8.036l0.896,3.444l0.896-3.304l2.772-8.148l-2.128-0.84l0-2.38l8.372-0.14l0,2.52l-2.044,0.84l-5.908,16.38l-4.48,0l-5.656-16.436z"/></svg>
